<?xml version="1.0" encoding="utf-8"?>
<!-- Generator: Adobe Illustrator 26.3.1, SVG Export Plug-In . SVG Version: 6.00 Build 0)  -->
<svg version="1.1" id="Layer_1" xmlns="http://www.w3.org/2000/svg" xmlns:xlink="http://www.w3.org/1999/xlink" x="0px" y="0px"
	 viewBox="0 0 16 16" style="enable-background:new 0 0 16 16;" xml:space="preserve">
<style type="text/css">
	.st0{fill-rule:evenodd;clip-rule:evenodd;fill:#FFFFFF;}
</style>
<path class="st0" d="M8,7.7l-1.2,2c0,0,3.1-3.4,5.4-4.8c0.6-0.4,1,0.4,1,1.1c0,1.4,0.1,5.2,0.1,5.8c0,0,0.2,0.2,0.5,0.2
	c0.4,0,1.2-0.3,2.3-1.5c0,0-1.2,2.8-3.8,4.4l-1.5-1.3c0,0-0.2-0.6-0.2-1.2s0-5.1,0-5.1S8.8,8.2,8,9.2c0,0,0,1.4,0,2.3
	s0.1,1.9,0.3,2.7c0.2,0.6,0.7,1.1,0.9,1.2c-0.3,0-3.5-0.4-4.9-2.4c0,0,0.2,0.1,0.5,0.1c0.3,0,0.6-0.1,0.6-0.6V7.6
	c0,0,0.5-0.8,0.8-1.3C5.9,6.4,5.5,6.8,5.1,7.2C4.6,7.4,4,7.7,4,7.7c0.3-0.4,1.5-1.9,2.5-3C5.3,5.4,4,7,3.3,8C2.8,8.3,2,8.7,2,8.7
	s0.5-0.9,2-2.6c1-1.2,1.9-2.2,3.1-3.2C4.5,4.4,2.3,7.4,1.2,9.1C0.7,9.4,0,9.8,0,9.8s1.3-2.7,4-5.7c2.1-2.2,4.8-3.7,5.9-3.4
	C8.7,2.4,8.5,2.9,8,4.4V7.7z"/>
</svg>
